<?xml version="1.0" encoding="utf-8"?>
<!-- Generator: Adobe Illustrator 19.0.0, SVG Export Plug-In . SVG Version: 6.00 Build 0)  -->
<svg version="1.1" id="Layer_1" xmlns="http://www.w3.org/2000/svg" xmlns:xlink="http://www.w3.org/1999/xlink" x="0px" y="0px"
	 viewBox="0 0 100 100" style="enable-background:new 0 0 100 100;" xml:space="preserve">
<style type="text/css">
	.st0{fill:#DDDDDD;}
</style>
<g id="XMLID_620_">
	<circle id="XMLID_645_" class="st0" cx="50" cy="50" r="50"/>
	<g id="XMLID_640_">
		<path id="XMLID_643_" d="M73.6,25.5c-0.9,0.4-1.5,1.4-1.3,2.6c1.4,8.2-6.9,20.1-15.7,29c-8.7,8.8-20.4,17-28.5,15.8
			c-1-0.2-2.1,0.4-2.5,1.3c-2.3,5.1-2.7,9.1-0.7,11.1c4.8,4.8,22.2-4.9,38.9-21.7s26.4-34.4,21.5-39.2C83.4,22.4,79,22.9,73.6,25.5z
			"/>
		<path id="XMLID_642_" d="M28.7,28.8C17.2,40.4,10.8,52.9,14.5,56.7l12,12.1c3.7,3.7,16-2.6,27.6-14.3C65.6,42.9,72,30.4,68.2,26.6
			L56.2,14.6C52.6,10.8,40.2,17.2,28.7,28.8z"/>
	</g>
</g>
</svg>
