<?xml version="1.0" encoding="utf-8"?>
<!-- Generator: Adobe Illustrator 19.0.0, SVG Export Plug-In . SVG Version: 6.00 Build 0)  -->
<svg version="1.1" id="Layer_1" xmlns="http://www.w3.org/2000/svg" xmlns:xlink="http://www.w3.org/1999/xlink" x="0px" y="0px"
	 viewBox="0 0 146 36.8" style="enable-background:new 0 0 146 36.8;" xml:space="preserve">
<style type="text/css">
	.st0{fill:#DDDDDD;}
</style>
<g id="XMLID_194_">
	<g id="XMLID_646_">
		<path id="XMLID_683_" class="st0" d="M60.7,20.4c0,1.4-0.2,2.7-0.5,3.9c-0.4,1.2-0.9,2.2-1.7,3c-0.8,0.8-1.7,1.5-2.8,1.9
			c-1.1,0.5-2.5,0.7-4.1,0.7c-1.6,0-2.9-0.2-4-0.7c-1.1-0.5-2.1-1.1-2.8-1.9c-0.7-0.8-1.3-1.8-1.7-3c-0.4-1.2-0.5-2.5-0.5-3.9
			s0.2-2.7,0.5-3.9c0.4-1.2,0.9-2.2,1.7-3c0.7-0.8,1.7-1.5,2.8-1.9c1.1-0.5,2.5-0.7,4-0.7c1.6,0,2.9,0.2,4.1,0.7
			c1.1,0.5,2.1,1.1,2.8,1.9c0.8,0.8,1.3,1.8,1.7,3C60.5,17.7,60.7,19,60.7,20.4z M56.3,20.4c0-0.9-0.1-1.8-0.3-2.6s-0.4-1.5-0.8-2.1
			c-0.4-0.6-0.9-1-1.5-1.4c-0.6-0.3-1.3-0.5-2.2-0.5c-0.9,0-1.6,0.2-2.2,0.5c-0.6,0.3-1.1,0.8-1.4,1.4c-0.4,0.6-0.6,1.3-0.8,2.1
			s-0.3,1.7-0.3,2.6c0,0.9,0.1,1.8,0.3,2.6c0.2,0.8,0.4,1.5,0.8,2c0.4,0.6,0.8,1,1.4,1.3c0.6,0.3,1.3,0.5,2.2,0.5
			c0.9,0,1.6-0.2,2.2-0.5c0.6-0.3,1.1-0.8,1.5-1.3c0.4-0.6,0.6-1.3,0.8-2C56.2,22.2,56.3,21.3,56.3,20.4z"/>
		<path id="XMLID_680_" class="st0" d="M72.3,29.5v-2.1l0.2-1.2l-0.2,0c-0.1,0.4-0.3,0.8-0.6,1.3c-0.3,0.4-0.6,0.8-1,1.2
			c-0.4,0.4-0.9,0.6-1.4,0.9c-0.5,0.2-1.1,0.3-1.7,0.3c-0.9,0-1.6-0.2-2.3-0.5c-0.6-0.3-1.2-0.8-1.6-1.3c-0.4-0.6-0.7-1.2-0.9-1.9
			c-0.2-0.7-0.3-1.5-0.3-2.3c0-1,0.1-1.9,0.3-2.7c0.2-0.8,0.5-1.4,0.8-2c0.3-0.6,0.7-1,1.2-1.4c0.5-0.4,1-0.7,1.5-0.9
			c0.6-0.2,1.1-0.4,1.7-0.5c0.6-0.1,1.2-0.1,1.8-0.1c0.3,0,0.6,0,0.8,0c0.2,0,0.5,0.1,0.6,0.1c0.2,0,0.4,0.1,0.5,0.1v-3.8l-1-0.5
			V9.5h4.9v17.2l0.9,0.5v2.4H72.3z M71.9,19.3c-0.2-0.1-0.3-0.1-0.5-0.1c-0.2,0-0.3-0.1-0.6-0.1c-0.2,0-0.5,0-0.7,0
			c-0.7,0-1.3,0.1-1.7,0.3c-0.5,0.2-0.8,0.5-1.1,0.9c-0.3,0.4-0.4,0.9-0.5,1.4c-0.1,0.5-0.2,1.1-0.2,1.7c0,1.1,0.2,1.9,0.5,2.5
			s0.8,0.9,1.4,0.9c0.5,0,1-0.2,1.4-0.5c0.4-0.3,0.8-0.8,1.1-1.4c0.3-0.6,0.5-1.2,0.7-1.9c0.2-0.7,0.2-1.4,0.2-2.1V19.3z"/>
		<path id="XMLID_677_" class="st0" d="M89.1,29.5v-2.1l0.2-1.2l-0.2,0c-0.1,0.4-0.3,0.8-0.6,1.3c-0.3,0.4-0.6,0.8-1,1.2
			c-0.4,0.4-0.9,0.6-1.4,0.9c-0.5,0.2-1.1,0.3-1.7,0.3c-0.9,0-1.6-0.2-2.3-0.5c-0.6-0.3-1.2-0.8-1.6-1.3c-0.4-0.6-0.7-1.2-0.9-1.9
			c-0.2-0.7-0.3-1.5-0.3-2.3c0-1,0.1-1.9,0.3-2.7c0.2-0.8,0.5-1.4,0.8-2c0.3-0.6,0.7-1,1.2-1.4c0.5-0.4,1-0.7,1.5-0.9
			c0.6-0.2,1.1-0.4,1.7-0.5c0.6-0.1,1.2-0.1,1.8-0.1c0.3,0,0.6,0,0.8,0c0.2,0,0.5,0.1,0.6,0.1c0.2,0,0.4,0.1,0.5,0.1v-3.8l-1-0.5
			V9.5h4.9v17.2l0.9,0.5v2.4H89.1z M88.7,19.3c-0.2-0.1-0.3-0.1-0.5-0.1c-0.2,0-0.3-0.1-0.6-0.1c-0.2,0-0.5,0-0.7,0
			c-0.7,0-1.3,0.1-1.7,0.3c-0.5,0.2-0.8,0.5-1.1,0.9c-0.3,0.4-0.4,0.9-0.5,1.4c-0.1,0.5-0.2,1.1-0.2,1.7c0,1.1,0.2,1.9,0.5,2.5
			c0.3,0.6,0.8,0.9,1.4,0.9c0.5,0,1-0.2,1.4-0.5c0.4-0.3,0.8-0.8,1.1-1.4c0.3-0.6,0.5-1.2,0.7-1.9c0.2-0.7,0.2-1.4,0.2-2.1V19.3z"/>
		<path id="XMLID_675_" class="st0" d="M99.2,29.8c0.7-0.1,1.3-0.2,1.8-0.4c0.5-0.2,0.9-0.5,1.2-0.8c0.3-0.3,0.6-0.7,0.7-1.1
			c0.2-0.4,0.2-0.8,0.2-1.3l0-13.6l-2.3-0.5V9.5h8.7v2.6l-2.1,0.5v13.6c0,1.1-0.2,2.1-0.5,2.9c-0.4,0.8-0.9,1.5-1.6,2
			c-0.7,0.5-1.5,0.9-2.5,1.2c-1,0.2-2.1,0.3-3.4,0.3L99.1,30L99.2,29.8z"/>
		<path id="XMLID_671_" class="st0" d="M124.2,23c0,1.1-0.2,2-0.5,2.9c-0.3,0.8-0.8,1.6-1.4,2.2c-0.6,0.6-1.4,1-2.2,1.4
			c-0.9,0.3-1.9,0.5-2.9,0.5c-1.1,0-2.1-0.2-3-0.5c-0.9-0.3-1.6-0.8-2.2-1.4c-0.6-0.6-1.1-1.3-1.4-2.2c-0.3-0.8-0.5-1.8-0.5-2.9
			c0-1.1,0.2-2,0.5-2.9c0.3-0.9,0.8-1.6,1.4-2.2c0.6-0.6,1.4-1,2.2-1.4c0.9-0.3,1.9-0.5,3-0.5c1.1,0,2.1,0.2,2.9,0.5
			c0.9,0.3,1.6,0.8,2.2,1.4c0.6,0.6,1.1,1.3,1.4,2.2C124,21,124.2,22,124.2,23z M120.1,23c0-1.3-0.3-2.3-0.8-3c-0.5-0.7-1.3-1-2.2-1
			c-1,0-1.7,0.3-2.2,1c-0.5,0.7-0.8,1.7-0.8,3c0,1.3,0.3,2.3,0.8,3c0.5,0.7,1.3,1,2.2,1c1,0,1.7-0.3,2.2-1
			C119.8,25.4,120.1,24.4,120.1,23z"/>
		<path id="XMLID_647_" class="st0" d="M127,12.6l-1-0.5V9.5h4.9v8.2l-0.7,2l0.2,0c0.1-0.4,0.3-0.8,0.6-1.3c0.3-0.4,0.6-0.8,1-1.2
			c0.4-0.3,0.9-0.6,1.4-0.9c0.5-0.2,1.1-0.3,1.7-0.3c0.9,0,1.6,0.2,2.3,0.5c0.6,0.3,1.2,0.8,1.6,1.3c0.4,0.6,0.7,1.2,0.9,1.9
			c0.2,0.7,0.3,1.5,0.3,2.3c0,1-0.1,1.9-0.3,2.7c-0.2,0.8-0.5,1.4-0.8,2c-0.3,0.6-0.7,1-1.2,1.4c-0.5,0.4-1,0.7-1.5,0.9
			c-0.5,0.2-1.1,0.4-1.7,0.5s-1.2,0.1-1.8,0.1c-0.9,0-1.6,0-2.4-0.1c-0.7-0.1-1.3-0.2-1.9-0.3c-0.6-0.1-1.2-0.3-1.7-0.4V12.6z
			 M131,26.8c0.1,0,0.3,0.1,0.5,0.1c0.2,0,0.4,0.1,0.6,0.1c0.2,0,0.5,0,0.7,0c0.7,0,1.3-0.1,1.7-0.4c0.4-0.2,0.8-0.5,1.1-0.9
			c0.3-0.4,0.4-0.9,0.5-1.4c0.1-0.5,0.2-1.1,0.2-1.7c0-0.5,0-1-0.1-1.4c-0.1-0.4-0.2-0.8-0.3-1.1s-0.3-0.5-0.6-0.7
			c-0.2-0.2-0.5-0.2-0.8-0.2c-0.5,0-1,0.2-1.4,0.5c-0.4,0.3-0.8,0.8-1.1,1.4s-0.5,1.2-0.7,1.9s-0.2,1.4-0.2,2.1V26.8z"/>
	</g>
	<g id="XMLID_620_">
		<circle id="XMLID_645_" class="st0" cx="20.7" cy="18.9" r="15.3"/>
		<g id="XMLID_640_">
			<path id="XMLID_643_" d="M27.9,11.4c-0.3,0.1-0.5,0.4-0.4,0.8c0.4,2.5-2.1,6.1-4.8,8.9c-2.7,2.7-6.2,5.2-8.7,4.8
				c-0.3-0.1-0.6,0.1-0.8,0.4c-0.7,1.6-0.8,2.8-0.2,3.4c1.5,1.5,6.8-1.5,11.9-6.6s8.1-10.5,6.6-12C30.8,10.5,29.5,10.6,27.9,11.4z"
				/>
			<path id="XMLID_642_" d="M14.1,12.5C10.6,16,8.7,19.8,9.8,21l3.7,3.7c1.1,1.1,4.9-0.8,8.4-4.4c3.5-3.6,5.5-7.4,4.3-8.5l-3.7-3.7
				C21.4,7,17.7,8.9,14.1,12.5z"/>
		</g>
	</g>
</g>
</svg>
